<svg xmlns="http://www.w3.org/2000/svg" viewBox="0 0 800 400" enable-background="new 0 0 800 400"><path fill="#242833" d="M400 374.528c-2.622 0-6.503-.248-10.102-1.434l-336.804-110.992c-7.465-2.459-13.094-10.242-13.094-18.102v-88c0-7.86 5.629-15.643 13.094-18.103l336.804-110.991c3.599-1.187 7.479-1.435 10.102-1.435s6.503.248 10.102 1.434l336.805 110.993c7.464 2.459 13.093 10.242 13.093 18.102v88c0 7.86-5.629 15.643-13.094 18.103l-336.804 110.991c-3.599 1.186-7.48 1.434-10.102 1.434z"/><path fill="#fff" d="M55.598 254.504c-4.179-1.377-7.598-6.104-7.598-10.504v-88c0-4.4 3.419-9.127 7.598-10.504l336.804-110.992c4.179-1.377 11.017-1.377 15.196 0l336.804 110.992c4.179 1.377 7.598 6.104 7.598 10.504v88c0 4.4-3.419 9.127-7.598 10.504l-336.804 110.992c-4.179 1.377-11.017 1.377-15.196 0l-336.804-110.992z"/><path fill="#FFC709" d="M744 241.6c0 2.2-1.708 4.567-3.796 5.26l-336.408 111.68c-2.088.693-5.505.693-7.593 0l-336.407-111.68c-2.088-.693-3.796-3.06-3.796-5.26v-83.2c0-2.2 1.708-4.567 3.796-5.26l336.408-111.68c2.088-.693 5.505-.693 7.593 0l336.407 111.68c2.088.693 3.796 3.06 3.796 5.26v83.2z"/><path fill="#AAD3E3" d="M56 240v1.6c0 2.2 1.708 4.567 3.796 5.26l336.407 111.68c2.088.693 5.505.693 7.593 0l336.407-111.68c2.088-.693 3.796-3.06 3.796-5.26v-1.6h-687.999z"/><path fill="#EE2D54" d="M400 351.083c-.76 0-1.268-.095-1.386-.128l-334.614-111.193v-79.524l334.631-111.199c.102-.027.609-.122 1.369-.122s1.268.095 1.386.128l334.614 111.193v79.524l-334.631 111.199c-.101.027-.609.122-1.369.122z"/><path fill="#F05158" d="M400 176l180.143-67.553-178.757-59.402c-.118-.033-.626-.128-1.386-.128s-1.268.095-1.369.122l-178.774 59.407 180.143 67.554z"/><path fill="#F1715E" d="M401.386 49.045c-.118-.033-.626-.128-1.386-.128s-1.268.095-1.369.122l-76.324 25.363 77.693 101.598 82.385-100.039-80.999-26.916z"/><path fill="#EE2D54" d="M401.386 49.045c-.118-.033-.626-.128-1.386-.128s-1.268.095-1.369.122l-334.631 111.198v.917l334.631-97.16c.102-.027.609-.122 1.369-.122s1.268.095 1.386.128l334.614 97.155v-.917l-334.614-111.193z"/><path fill="#5A4F7A" d="M64 200v39.762l334.614 111.193c.118.033.626.128 1.386.128s1.268-.095 1.369-.122l334.631-111.198v-39.763h-672z"/><circle fill="#FAA627" cx="400" cy="160" r="72"/><circle fill="#FFC709" cx="400" cy="160" r="40"/><path d="M592 136c-4.936 0-9.523 1.492-13.338 4.047-6.91-11.979-19.84-20.047-34.662-20.047-10.806 0-20.603 4.292-27.801 11.255-2.146-2.013-5.024-3.255-8.199-3.255-5.725 0-10.505 4.012-11.703 9.375-2.945-.894-6.068-1.375-9.305-1.375-14.911 0-27.439 10.198-30.992 24h160c0-13.255-10.745-24-24-24zm-280-24c-19.196 0-35.752 11.272-43.431 27.554-3.656-2.252-7.96-3.554-12.569-3.554-13.255 0-24 10.745-24 24h128c0-26.51-21.49-48-48-48zm-112 16c-17.673 0-32 14.327-32 32h64c0-17.673-14.327-32-32-32z" fill="#F58A6C"/><path fill="#6A5F8B" d="M400 224l-180.143 67.553 178.757 59.402c.118.033.626.128 1.386.128s1.268-.095 1.369-.122l178.774-59.407-180.143-67.554z"/><path fill="#7A6FA3" d="M398.614 350.955c.118.033.626.128 1.386.128s1.268-.095 1.369-.122l76.324-25.363-77.693-101.598-82.385 100.039 80.999 26.916z"/><g fill="#878FBE"><path d="M504 240c0 22.091-17.909 40-40 40s-40-17.909-40-40m8-8c0 13.255-10.745 24-24 24s-24-10.745-24-24m216 8c0 8.837-7.163 16-16 16s-16-7.163-16-16m8-8c0 17.673-14.327 32-32 32s-32-14.327-32-32m-152 8c0 13.255-10.745 24-24 24s-24-10.745-24-24m16 0c0 22.091-17.909 40-40 40s-40-17.909-40-40m140-8c0 8.837-7.163 16-16 16s-16-7.163-16-16m-100 0c0 13.255-10.745 24-24 24s-24-10.745-24-24"/><circle cx="506" cy="252" r="12"/><path d="M496 232h32v16h-32z"/></g><path fill="#5A4F7A" d="M398.614 350.955c.118.033.626.128 1.386.128s1.268-.095 1.369-.122l334.631-111.198v-.917l-334.631 97.16c-.102.027-.609.122-1.369.122s-1.268-.095-1.386-.128l-334.614-97.155v.917l334.614 111.193z"/><path fill="#AAD3E3" d="M64 160h672v80h-672z"/><path fill="#FFC709" d="M64 160h672v8h-672z"/><path fill="#AAD3E3" d="M56 232h688v8h-688z"/><path fill="#4A4956" d="M56 168h688v64h-688z"/><path d="M128.941 232h175.22l-36.465-84.894h-30.313l16.195 30.729h-3.842l-7.319 2.365 6.887 6.466 6.358 11.355h-3.905l-29.274-50.915h-30.314l9.528 19.52h3.085l7.557 11.208h-8.271l-2.372 2.365 1.81 6.466 8.275 11.355h-4.659l-33.669-45.093c-.745-.997-1.643-1.86-2.675-2.593-1.031-.732-2.195-1.335-3.472-1.814s-2.665-.832-4.144-1.067c-1.48-.234-3.051-.349-4.694-.349h-20.698l12.006 22.617 24.684 28.297h-5.294l-45.45-50.915h-30.6l10.852 16.806 1.131 2.714 11.392 11.208h-12.468l-7.294-3.672-.905 14.181 6.263 9.676h-14.087l40.941 33.984zm583.043-57.732c-.014-.632-.043-1.269-.108-1.914-.359-3.575-1.466-6.944-3.156-9.984-1.687-3.035-3.954-5.744-6.638-8.006-2.681-2.259-5.779-4.074-9.135-5.323-3.352-1.249-6.962-1.934-10.671-1.934h-19.645l-34.342 40.842-.518-.582 7.813-9.333-1.056-14.87 12.707-16.058h-13.847l-11.597 15.529-13.91-15.529h-13.855l-19.058 30.729h-2.417l6.854-11.208h-4.672l5.034-8.453h-6.975l6.333-11.067h-30.314l-18.549 39.073-7.085-7.813 13.633-31.26h-17.169l-16.202 20.798-10.612 30.117 2.057-17.821 7.866-33.094h-13.846l-14.36 50.915h-2.696l3.085-11.355h-3.354l2.29-8.831h-3.047l2.784-11.208h-1.408l2.059-8.453h-2.853l2.59-11.067h-30.313l-11.593 84.892h226.422l11.926-10.475c3.402-2.988 6.771-5.946 10.091-8.863l13.698-12.031 3.125-2.746 6.984-6.135c.337-.296.665-.602.983-.916l.011-.011.294-.308c.209-.214.419-.427.62-.649l.021-.022.327-.385.516-.608.031-.036.318-.424.419-.552.035-.053.037-.049.089-.14c.294-.424.571-.86.835-1.304l.221-.376c.285-.502.556-1.012.802-1.536l.017-.033.053-.128c.152-.33.3-.662.436-1.001l.173-.474.152-.416c.194-.553.374-1.113.525-1.686l.007-.024.022-.101c.138-.538.252-1.085.352-1.638l.076-.451.071-.414c.064-.461.114-.927.15-1.397l.002-.014.002-.062c.043-.59.058-1.189.057-1.792l-.004-.482zm-313.195 57.732h26.789l3.662-33.979h-1.271l1.168-11.355h-1.784l.85-8.832h-1.132l1.034-11.208h-.003l.779-8.453h-1.08l.981-11.067h-30.314l.452 50.915h-.498zm-66.245 0h59.544l-3.433-84.894h-14.414l-10.571 32.689-10.056-32.689h-11.029l-12.044 32.689-8.519-32.689h-14.415l14.61 50.915z" fill="#242833"/><path fill="#fff" d="M123.718 147.106l-1.002 11.067h-16.806l-.811 8.453h15.285l-1.02 11.209h-15.341l-1.937 20.185h-14.086l5.116-50.914zm39.317 29.848l15.403 21.066h-17.527l-11.68-19.78-1.756 19.78h-14.077l4.374-50.915h20.698c2.633 0 5.085.295 7.268.905 2.184.61 4.101 1.536 5.665 2.797 1.565 1.262 2.776 2.86 3.548 4.816.772 1.958 1.104 4.275.907 6.971-.128 1.745-.509 3.433-1.131 5.005-.622 1.573-1.484 3.029-2.572 4.308s-2.403 2.38-3.927 3.242c-1.526.862-3.262 1.484-5.193 1.805zm-11.906-7.231c1.138 0 2.316-.05 3.45-.213 1.133-.162 2.222-.436 3.182-.882s1.791-1.065 2.408-1.917c.617-.852 1.022-1.936 1.129-3.314.107-1.374-.128-2.455-.612-3.303-.483-.848-1.215-1.463-2.102-1.907-.887-.444-1.928-.716-3.031-.878-1.103-.161-2.268-.212-3.402-.212h-1.346l-1.028 12.624h1.352M222.483 147.106l-.645 11.067h-16.518l-.538 8.453h15.711l-.656 11.209h-15.768l-.562 8.831h16.67l-.662 11.354h-30.817l3.471-50.914zm45.214 0l-.482 11.067h-16.517l-.414 8.453h15.711l-.491 11.209h-15.768l-.432 8.831h16.67l-.494 11.354h-30.817l2.72-50.914zm120.958 0l-17.517 50.914h-14.37l-8.967-29.713-11.287 29.713h-14.297l-14.609-50.914h14.414l8.519 32.69 12.044-32.69h11.029l10.057 32.69 10.57-32.69zm293.621 0c3.709 0 7.32.685 10.672 1.934 3.355 1.25 6.453 3.064 9.134 5.323 2.685 2.262 4.952 4.972 6.638 8.006 1.69 3.041 2.797 6.41 3.156 9.984.36 3.583-.076 6.975-1.167 10.049-1.094 3.08-2.845 5.841-5.112 8.153-2.27 2.316-5.056 4.182-8.213 5.469-3.16 1.288-6.689 1.996-10.442 1.996h-19.971l-4.34-50.915h19.645zm.908 39.56c2.093 0 4.085-.272 5.881-.837 1.795-.565 3.394-1.422 4.701-2.591 1.306-1.168 2.32-2.647 2.948-4.457.627-1.807.868-3.944.631-6.427-.218-2.276-.808-4.301-1.71-6.058-.901-1.755-2.113-3.243-3.576-4.446-1.463-1.203-3.177-2.122-5.084-2.741-1.906-.618-4.006-.936-6.24-.936h-3.262l2.558 28.493h3.153"/><path fill="#fff" d="M647.235 147.106l4.085 50.914h-14.077l-27.909-31.394 1.979 31.394h-14.085l-3.201-50.914h13.855l27.702 30.927-2.196-30.927zm-68.109 0l.642 11.067h-16.526l.445 8.453h15.72l.647 11.209h-15.777l.465 8.831h16.679l.659 11.354h-30.817l-2.451-50.914zm-42.315 0l-20.311 23.897 24.503 27.017h-18.251l-18.907-22.291.593 22.291h-14.077l-1.456-50.914h13.847l.689 20.798 16.201-20.798zm-62.815 0l.262 11.067h-16.516l.155 8.453h15.711l.263 11.209h-15.768l.162 8.831h16.67l.269 11.354h-30.817l-.705-50.914zm-45.214 0l.099 11.067h-16.526l.031 8.453h15.72l.097 11.209h-15.777l.032 8.831h16.679l.103 11.354h-30.818l.046-50.914z"/><path d="M284.118 211.363h3.476l2.755 7.256 2.917-7.256h3.511l2.053 13.576h-3.53l-.99-7.814h-.036l-3.259 7.814h-1.404l-3.115-7.814h-.036l-1.134 7.814h-3.512l2.304-13.576zm23.256 11.218l-.937 2.358h-3.745l5.222-13.576h3.854l5.113 13.576h-3.763l-.883-2.358h-4.861zm2.467-7.022h-.036l-1.458 4.321h2.935l-1.441-4.321zm23.023 9.38h-4.393l-3.331-5.222h-.036v5.222h-3.529v-13.576h5.275c2.683 0 4.718 1.278 4.718 4.178 0 1.872-1.045 3.492-2.971 3.835l4.267 5.563zm-7.76-7.49h.342c1.152 0 2.449-.216 2.449-1.692s-1.297-1.692-2.449-1.692h-.342v3.384zm22.016-1.53c-.721-.973-1.891-1.495-3.097-1.495-2.161 0-3.619 1.657-3.619 3.764 0 2.143 1.477 3.691 3.673 3.691 1.152 0 2.305-.559 3.043-1.44v4.23c-1.171.36-2.017.631-3.115.631-1.891 0-3.691-.721-5.096-1.999-1.494-1.351-2.179-3.115-2.179-5.131 0-1.855.702-3.638 1.999-4.97 1.332-1.368 3.259-2.197 5.167-2.197 1.135 0 2.179.253 3.224.685v4.231zm14.401.684v-5.239h3.528v13.576h-3.528v-5.563h-5.096v5.563h-3.529v-13.576h3.529v5.239h5.096zm29.843 2.827v2.701h-1.639v2.809h-3.277v-2.809h-6.59v-2.251l5.239-8.517h4.628v8.066h1.639zm-4.916-5.222h-.036l-3.169 5.222h3.205v-5.222zm24.228 3.602v2.7h-5.149v-2.7h5.149zm21.673-6.447l-3.854 4.592.036.036c.612-.271 1.188-.415 1.891-.415 2.665 0 4.357 2.287 4.357 4.771 0 3.331-2.736 5.132-5.834 5.132-1.314 0-2.826-.342-3.871-1.17-1.08-.9-1.818-2.323-1.818-3.728 0-1.963 1.009-3.871 2.179-5.401l2.917-3.817h3.997zm-1.243 9.093c0-1.225-.937-2.215-2.179-2.215-1.225 0-2.232.99-2.232 2.215 0 1.242 1.008 2.251 2.232 2.251 1.243 0 2.179-1.009 2.179-2.251zm13.498 1.044l-3.312 5.979h-2.106l2.34-5.979h3.078zm25.239.45v2.989h-10.912l5.546-6.032c.792-.864 1.549-2.088 1.549-3.331 0-.863-.612-1.764-1.549-1.764-.954 0-1.477.738-1.477 1.656 0 .18.019.378.055.576h-3.89c.108-3.115 2.089-5.222 5.294-5.222 2.845 0 5.239 1.872 5.239 4.825 0 1.945-.811 3.079-2.196 4.34l-2.107 1.962h4.448zm16.379-3.799c0 3.529-1.71 7.328-5.762 7.328-4.051 0-5.762-3.799-5.762-7.328s1.729-7.328 5.762-7.328 5.762 3.799 5.762 7.328zm-8.013-.017c0 1.314.433 4.23 2.251 4.23s2.251-2.916 2.251-4.23-.433-4.195-2.251-4.195-2.251 2.88-2.251 4.195zm14.922-3.781v-2.989h5.474v13.576h-3.528v-10.587h-1.946zm22.556-2.99l-3.854 4.592.036.036c.612-.271 1.188-.415 1.891-.415 2.665 0 4.357 2.287 4.357 4.771 0 3.331-2.736 5.132-5.834 5.132-1.314 0-2.826-.342-3.871-1.17-1.08-.9-1.818-2.323-1.818-3.728 0-1.963 1.009-3.871 2.179-5.401l2.917-3.817h3.997zm-1.243 9.093c0-1.225-.937-2.215-2.179-2.215-1.225 0-2.232.99-2.232 2.215 0 1.242 1.008 2.251 2.232 2.251 1.243 0 2.179-1.009 2.179-2.251z" fill="#FFC709"/><path fill="#AAD3E3" d="M416 320c-13.255 0-24-10.745-24-24s10.745-24 24-24c2.062 0 4.064.261 5.975.75-5.733-5.42-13.463-8.75-21.975-8.75-17.673 0-32 14.327-32 32s14.327 32 32 32c8.512 0 16.242-3.33 21.975-8.75-1.911.489-3.913.75-5.975.75zm88.838-42.79c-.461-1.613-1.215-1.613-1.676 0l-1.374 4.809c-.461 1.613-2.157 3.309-3.77 3.77l-4.809 1.374c-1.613.461-1.613 1.215 0 1.676l4.809 1.374c1.613.461 3.309 2.157 3.77 3.77l1.374 4.809c.461 1.613 1.215 1.613 1.676 0l1.374-4.809c.461-1.613 2.157-3.309 3.77-3.77l4.809-1.374c1.613-.461 1.613-1.215 0-1.676l-4.809-1.374c-1.613-.461-3.309-2.157-3.77-3.77l-1.374-4.809zm118.475-24.605c-.23-.806-.607-.806-.838 0l-.687 2.404c-.23.806-1.079 1.655-1.885 1.885l-2.404.687c-.806.23-.806.607 0 .838l2.404.687c.806.23 1.655 1.079 1.885 1.885l.687 2.404c.23.806.607.806.838 0l.687-2.404c.23-.806 1.079-1.655 1.885-1.885l2.404-.687c.806-.23.806-.607 0-.838l-2.404-.687c-.806-.23-1.655-1.079-1.885-1.885l-.687-2.404zm-440.894 0c-.23-.806-.607-.806-.838 0l-.687 2.404c-.23.806-1.079 1.655-1.885 1.885l-2.404.687c-.806.23-.806.607 0 .838l2.404.687c.806.23 1.655 1.079 1.885 1.885l.687 2.404c.23.806.607.806.838 0l.687-2.404c.23-.806 1.079-1.655 1.885-1.885l2.404-.687c.806-.23.806-.607 0-.838l-2.404-.687c-.806-.23-1.655-1.079-1.885-1.885l-.687-2.404zm134.127 34.727c-.307-1.075-.81-1.075-1.117 0l-.916 3.206c-.307 1.075-1.438 2.206-2.513 2.513l-3.206.916c-1.075.307-1.075.81 0 1.117l3.206.916c1.075.307 2.206 1.438 2.513 2.513l.916 3.206c.307 1.075.81 1.075 1.117 0l.916-3.206c.307-1.075 1.438-2.206 2.513-2.513l3.206-.916c1.075-.307 1.075-.81 0-1.117l-3.206-.916c-1.075-.307-2.206-1.438-2.513-2.513l-.916-3.206z"/><circle fill="#878FBE" cx="574" cy="270" r="2"/><circle fill="#878FBE" cx="486" cy="306" r="2"/><circle fill="#878FBE" cx="342" cy="272" r="2"/><circle fill="#878FBE" cx="226" cy="270" r="2"/><circle fill="#878FBE" cx="288" cy="298" r="2"/><circle fill="#878FBE" cx="542" cy="288" r="2"/><circle fill="#878FBE" cx="162" cy="258" r="2"/><path fill="#fff" d="M732 200c0 6.627 5.373 12 12 12l4-12-4-12c-6.627 0-12 5.373-12 12zm-676-12l-4 12 4 12c6.627 0 12-5.373 12-12s-5.373-12-12-12z"/></svg>